<svg width="124" height="30" viewBox="0 0 124 30" fill="none" xmlns="http://www.w3.org/2000/svg">
<path d="M37.1037 15.96V21.54C37.1037 21.66 37.1504 21.7267 37.2437 21.74C37.9104 21.8467 38.5704 21.9 39.2237 21.9C41.997 21.9 43.3837 20.82 43.3837 18.66C43.3837 16.74 41.7304 15.78 38.4237 15.78H37.2637C37.157 15.78 37.1037 15.84 37.1037 15.96ZM37.1037 9.86V14.34C37.1037 14.4467 37.157 14.5 37.2637 14.5H38.4237C41.3304 14.5 42.7837 13.6467 42.7837 11.94C42.7837 11.1133 42.4837 10.5 41.8837 10.1C41.2837 9.7 40.3304 9.5 39.0237 9.5C38.4504 9.5 37.8637 9.55333 37.2637 9.66C37.157 9.68667 37.1037 9.75333 37.1037 9.86ZM36.6237 23.06C36.3037 23.02 36.037 22.88 35.8237 22.64C35.6104 22.3867 35.5037 22.0933 35.5037 21.76V9.64C35.5037 9.30667 35.6037 9.02 35.8037 8.78C36.017 8.52667 36.2837 8.38 36.6037 8.34C37.337 8.24667 38.1437 8.2 39.0237 8.2C42.5437 8.2 44.3037 9.38 44.3037 11.74C44.3037 12.5533 44.0304 13.26 43.4837 13.86C42.9504 14.4467 42.2237 14.84 41.3037 15.04C41.2904 15.04 41.2837 15.0467 41.2837 15.06C41.2837 15.0733 41.297 15.08 41.3237 15.08C42.4704 15.2667 43.3637 15.7 44.0037 16.38C44.6437 17.0467 44.9637 17.8533 44.9637 18.8C44.9637 21.7333 43.0504 23.2 39.2237 23.2C38.277 23.2 37.4104 23.1533 36.6237 23.06ZM49.5168 22.02L46.7168 9.2C46.6768 8.98667 46.7168 8.8 46.8368 8.64C46.9702 8.48 47.1435 8.4 47.3568 8.4C47.5968 8.4 47.8035 8.48 47.9768 8.64C48.1635 8.78667 48.2835 8.97333 48.3368 9.2L50.7168 21.26C50.7168 21.2733 50.7235 21.28 50.7368 21.28C50.7502 21.28 50.7568 21.2733 50.7568 21.26L53.2168 9.42C53.2702 9.12667 53.4102 8.88667 53.6368 8.7C53.8768 8.5 54.1435 8.4 54.4368 8.4C54.7435 8.4 55.0168 8.5 55.2568 8.7C55.4968 8.88667 55.6502 9.12667 55.7168 9.42L58.1768 21.26C58.1768 21.2733 58.1835 21.28 58.1968 21.28C58.2102 21.28 58.2168 21.2733 58.2168 21.26L60.5968 9.18C60.6368 8.95333 60.7435 8.76667 60.9168 8.62C61.0902 8.47333 61.2968 8.4 61.5368 8.4C61.7368 8.4 61.9035 8.48 62.0368 8.64C62.1702 8.8 62.2168 8.98 62.1768 9.18L59.3568 22.02C59.2902 22.3133 59.1435 22.5533 58.9168 22.74C58.6902 22.9133 58.4302 23 58.1368 23C57.8435 23 57.5768 22.9133 57.3368 22.74C57.1102 22.5533 56.9702 22.3133 56.9168 22.02L54.4568 10.14C54.4568 10.1267 54.4502 10.12 54.4368 10.12C54.4235 10.12 54.4168 10.1267 54.4168 10.14L51.9568 22.02C51.8902 22.3133 51.7435 22.5533 51.5168 22.74C51.2902 22.9133 51.0302 23 50.7368 23C50.4435 23 50.1768 22.9133 49.9368 22.74C49.7102 22.5533 49.5702 22.3133 49.5168 22.02ZM67.4459 13.56C65.5926 13.56 64.5792 14.66 64.4059 16.86C64.4059 16.9667 64.4659 17.02 64.5859 17.02H69.9659C70.0726 17.02 70.1259 16.9667 70.1259 16.86C70.0459 14.66 69.1526 13.56 67.4459 13.56ZM67.8659 23.2C66.2259 23.2 64.9792 22.7533 64.1259 21.86C63.2726 20.9533 62.8459 19.6 62.8459 17.8C62.8459 15.9467 63.2526 14.5867 64.0659 13.72C64.8926 12.84 66.0192 12.4 67.4459 12.4C70.0726 12.4 71.4659 13.9533 71.6259 17.06C71.6392 17.38 71.5259 17.6533 71.2859 17.88C71.0592 18.0933 70.7859 18.2 70.4659 18.2H64.5459C64.4392 18.2 64.3859 18.26 64.3859 18.38C64.5059 20.82 65.7126 22.04 68.0059 22.04C68.7659 22.04 69.5459 21.9 70.3459 21.62C70.4926 21.5667 70.6326 21.5867 70.7659 21.68C70.8992 21.76 70.9659 21.88 70.9659 22.04C70.9659 22.4933 70.7592 22.7733 70.3459 22.88C69.4926 23.0933 68.6659 23.2 67.8659 23.2ZM79.0742 17.5C77.7542 17.5 76.7542 17.7133 76.0742 18.14C75.4075 18.5667 75.0742 19.1667 75.0742 19.94C75.0742 20.54 75.2408 21.0267 75.5742 21.4C75.9208 21.76 76.3742 21.94 76.9342 21.94C77.8942 21.94 78.6875 21.62 79.3142 20.98C79.9542 20.34 80.2742 19.4933 80.2742 18.44V17.68C80.2742 17.56 80.2142 17.5 80.0942 17.5H79.0742ZM76.6142 23.2C75.7075 23.2 74.9675 22.9133 74.3942 22.34C73.8208 21.7667 73.5342 21.0067 73.5342 20.06C73.5342 18.9533 73.9742 18.0667 74.8542 17.4C75.7342 16.7333 77.1408 16.4 79.0742 16.4H80.0942C80.2142 16.4 80.2742 16.3467 80.2742 16.24V15.86C80.2742 15.0467 80.0875 14.48 79.7142 14.16C79.3408 13.8267 78.6808 13.66 77.7342 13.66C76.8142 13.66 75.8208 13.8333 74.7542 14.18C74.5942 14.2333 74.4475 14.2133 74.3142 14.12C74.1808 14.0267 74.1142 13.8933 74.1142 13.72C74.1142 13.2533 74.3342 12.9533 74.7742 12.82C75.7608 12.54 76.7475 12.4 77.7342 12.4C79.2675 12.4 80.3275 12.68 80.9142 13.24C81.5142 13.8 81.8142 14.8067 81.8142 16.26V22.28C81.8142 22.48 81.7408 22.6533 81.5942 22.8C81.4608 22.9333 81.2942 23 81.0942 23C80.8942 23 80.7208 22.9333 80.5742 22.8C80.4275 22.6533 80.3542 22.48 80.3542 22.28L80.3342 21.24C80.3342 21.2267 80.3275 21.22 80.3142 21.22C80.2875 21.22 80.2742 21.2333 80.2742 21.26C79.4875 22.5533 78.2675 23.2 76.6142 23.2ZM84.2123 14.2C84.039 14.2 83.8923 14.1467 83.7723 14.04C83.6656 13.92 83.6123 13.7733 83.6123 13.6C83.6123 13.4267 83.6656 13.2867 83.7723 13.18C83.8923 13.06 84.039 13 84.2123 13H85.6723C85.7923 13 85.8523 12.94 85.8523 12.82V9.96C85.8523 9.74667 85.9256 9.56667 86.0723 9.42C86.219 9.27333 86.399 9.2 86.6123 9.2C86.8256 9.2 87.0056 9.27333 87.1523 9.42C87.299 9.56667 87.3723 9.74667 87.3723 9.96V12.82C87.3723 12.94 87.4323 13 87.5523 13H90.5523C90.7256 13 90.8656 13.06 90.9723 13.18C91.0923 13.2867 91.1523 13.4267 91.1523 13.6C91.1523 13.7733 91.0923 13.92 90.9723 14.04C90.8656 14.1467 90.7256 14.2 90.5523 14.2H87.5523C87.4323 14.2 87.3723 14.26 87.3723 14.38V19.66C87.3723 20.62 87.499 21.2533 87.7523 21.56C88.0056 21.8533 88.4923 22 89.2123 22C89.639 22 89.9923 21.9667 90.2723 21.9C90.419 21.8733 90.5523 21.9067 90.6723 22C90.8056 22.08 90.8723 22.1933 90.8723 22.34C90.8723 22.5267 90.8123 22.6933 90.6923 22.84C90.5856 22.9867 90.4456 23.0733 90.2723 23.1C89.9256 23.1667 89.4856 23.2 88.9523 23.2C87.779 23.2 86.9656 22.96 86.5123 22.48C86.0723 21.9867 85.8523 21.0933 85.8523 19.8V14.38C85.8523 14.26 85.7923 14.2 85.6723 14.2H84.2123ZM95.5714 22.78C95.4247 22.9267 95.2447 23 95.0314 23C94.818 23 94.6314 22.9267 94.4714 22.78C94.3247 22.6333 94.2514 22.4533 94.2514 22.24V8.76C94.2514 8.54667 94.3247 8.36667 94.4714 8.22C94.6314 8.07333 94.818 8 95.0314 8C95.2447 8 95.4247 8.07333 95.5714 8.22C95.718 8.36667 95.7914 8.54667 95.7914 8.76V14.16C95.7914 14.1733 95.798 14.18 95.8114 14.18C95.8247 14.18 95.838 14.1733 95.8514 14.16C96.8114 12.9867 97.9247 12.4 99.1914 12.4C100.405 12.4 101.285 12.74 101.831 13.42C102.378 14.0867 102.651 15.2133 102.651 16.8V22.24C102.651 22.4533 102.578 22.6333 102.431 22.78C102.298 22.9267 102.125 23 101.911 23C101.698 23 101.518 22.9267 101.371 22.78C101.225 22.6333 101.151 22.4533 101.151 22.24V17.06C101.151 15.7133 100.971 14.8133 100.611 14.36C100.265 13.8933 99.658 13.66 98.7914 13.66C98.098 13.66 97.4247 13.9933 96.7714 14.66C96.118 15.3133 95.7914 15.9867 95.7914 16.68V22.24C95.7914 22.4533 95.718 22.6333 95.5714 22.78ZM109.458 13.56C107.604 13.56 106.591 14.66 106.418 16.86C106.418 16.9667 106.478 17.02 106.598 17.02H111.978C112.084 17.02 112.138 16.9667 112.138 16.86C112.058 14.66 111.164 13.56 109.458 13.56ZM109.878 23.2C108.238 23.2 106.991 22.7533 106.138 21.86C105.284 20.9533 104.858 19.6 104.858 17.8C104.858 15.9467 105.264 14.5867 106.078 13.72C106.904 12.84 108.031 12.4 109.458 12.4C112.084 12.4 113.478 13.9533 113.638 17.06C113.651 17.38 113.538 17.6533 113.298 17.88C113.071 18.0933 112.798 18.2 112.478 18.2H106.558C106.451 18.2 106.398 18.26 106.398 18.38C106.518 20.82 107.724 22.04 110.018 22.04C110.778 22.04 111.558 21.9 112.358 21.62C112.504 21.5667 112.644 21.5867 112.778 21.68C112.911 21.76 112.978 21.88 112.978 22.04C112.978 22.4933 112.771 22.7733 112.358 22.88C111.504 23.0933 110.678 23.2 109.878 23.2ZM117.406 22.76C117.259 22.92 117.073 23 116.846 23C116.619 23 116.426 22.92 116.266 22.76C116.119 22.6 116.046 22.4133 116.046 22.2V13.36C116.046 13.1467 116.119 12.9667 116.266 12.82C116.413 12.6733 116.593 12.6 116.806 12.6C117.019 12.6 117.199 12.6733 117.346 12.82C117.493 12.9667 117.566 13.1467 117.566 13.36V14.9C117.566 14.9133 117.573 14.92 117.586 14.92C117.613 14.92 117.626 14.9067 117.626 14.88C118.026 14.2133 118.586 13.68 119.306 13.28C120.039 12.8667 120.859 12.64 121.766 12.6C121.953 12.5867 122.113 12.6467 122.246 12.78C122.379 12.9133 122.446 13.0733 122.446 13.26C122.446 13.4333 122.379 13.5867 122.246 13.72C122.126 13.8533 121.973 13.9267 121.786 13.94C120.466 13.9933 119.446 14.38 118.726 15.1C118.006 15.8067 117.646 16.8 117.646 18.08V22.2C117.646 22.4133 117.566 22.6 117.406 22.76Z" fill="white" fill-opacity="0.87"/>
<rect y="3" width="5.12592" height="6.40004" fill="#FECC00"/>
<rect x="18.9263" y="20.6" width="5.12592" height="6.40004" fill="#FECC00"/>
<rect x="18.9263" y="8.59988" width="5.12592" height="6.40004" fill="#FECC00"/>
<rect y="15.0001" width="5.12592" height="6.40004" fill="#FECC00"/>
<rect x="11.8291" y="3" width="12.2233" height="5.60003" fill="#FECC00"/>
<rect y="21.3998" width="12.2233" height="5.60003" fill="#FECC00"/>
</svg>
